<svg id="logo" xmlns="http://www.w3.org/2000/svg" width="195.288" height="55" viewBox="0 0 195.288 55">
  <g id="logo_logotype" data-name="logo/logotype" transform="translate(0 0)">
    <g id="logo_logotype_name" data-name="logo/logotype/name" transform="translate(59.801 5.626)">
      <path id="Trazado_101" data-name="Trazado 101" d="M87.4,19.736H81.6l-10.686,14.1L60.28,19.736h-5.8l13.668,17.78L53.493,56.5h5.8L70.912,41.083,82.584,56.5h5.8L73.728,37.515Z" transform="translate(-53.493 -19.736)" fill="#ffffff"/>
      <rect id="Rectángulo_48" data-name="Rectángulo 48" width="4.579" height="36.766" transform="translate(43.943)" fill="#ffffff"/>
      <path id="Trazado_102" data-name="Trazado 102" d="M103.115,40.272a9.269,9.269,0,0,0,3.459-3.233,10.481,10.481,0,0,0,1.38-5.719,11.014,11.014,0,0,0-3.392-8.453,12.891,12.891,0,0,0-9.068-3.131H77.876V56.5h4.58V42.574h12.25l8.7,13.819.069.11h5.44l-9.6-14.73A18.114,18.114,0,0,0,103.115,40.272ZM82.456,24.1H95a9.146,9.146,0,0,1,6.1,1.946,6.6,6.6,0,0,1,2.273,5.279,6.118,6.118,0,0,1-1.336,4.2,7.107,7.107,0,0,1-3.32,2.1,13.8,13.8,0,0,1-3.937.594H82.456Z" transform="translate(-15.456 -19.735)" fill="#ffffff"/>
      <path id="Trazado_103" data-name="Trazado 103" d="M120.934,19.736V40.751a12.61,12.61,0,0,1-1.61,6.73A9.885,9.885,0,0,1,115.2,51.26a12.511,12.511,0,0,1-10.739,0,9.678,9.678,0,0,1-4.124-3.779,12.775,12.775,0,0,1-1.582-6.73V19.736H94.177v20.9a17.667,17.667,0,0,0,2,8.556,14.459,14.459,0,0,0,5.542,5.711,17.142,17.142,0,0,0,16.246-.028,14.627,14.627,0,0,0,5.542-5.737,17.531,17.531,0,0,0,2-8.5v-20.9Z" transform="translate(9.974 -19.735)" fill="#ffffff"/>
    </g>
    <g id="logo_logotype_circle" data-name="logo/logotype/circle">
      <path id="Trazado_104" data-name="Trazado 104" d="M77.141,40.061a1.023,1.023,0,0,0-1.021-.983h-.591a1.029,1.029,0,0,0-.737.315,1.042,1.042,0,0,0-.284.753c.013.3.023.6.023.909A20.906,20.906,0,0,1,52.65,61.91a21.024,21.024,0,0,1-19.86-19.86A20.875,20.875,0,0,1,70.826,29.2a1.024,1.024,0,0,0,1.728-.074,2.013,2.013,0,0,0-.138-2.222,23.662,23.662,0,0,0-18.767-9.362A23.536,23.536,0,0,0,30.16,42.175,23.674,23.674,0,0,0,52.524,64.542c.381.018.758.026,1.137.026a23.544,23.544,0,0,0,23.5-23.514C77.164,40.721,77.154,40.391,77.141,40.061Z" transform="translate(-30.134 -17.538)" fill="#ffffff"/>
      <path id="Trazado_105" data-name="Trazado 105" d="M57.961,27.66a.946.946,0,0,0,.461-1.528A14,14,0,1,0,61.2,31.19a.945.945,0,0,0-1.124-.645l-.333.079a.939.939,0,0,0-.686,1.2,11.763,11.763,0,1,1-2.429-4.342.955.955,0,0,0,.968.284Z" transform="translate(-24.319 -11.724)" fill="#ffffff"/>
      <path id="Trazado_106" data-name="Trazado 106" d="M45.13,24.975a7.522,7.522,0,0,1,5.179,2.061.876.876,0,0,0,1.2,0l.166-.156a.876.876,0,0,0,0-1.272,9.543,9.543,0,1,0,1.966,2.637.874.874,0,0,0-.512-.438.884.884,0,0,0-.671.054l-.2.1a.878.878,0,0,0-.379,1.172,7.454,7.454,0,0,1,.809,3.4,7.558,7.558,0,1,1-7.557-7.56Z" transform="translate(-21.615 -9.019)" fill="#ffffff"/>
      <path id="Trazado_107" data-name="Trazado 107" d="M62.06,23.222A18.559,18.559,0,0,0,50.742,19.4,18.8,18.8,0,0,0,37,25.408a18.575,18.575,0,0,0-4.951,14.177A18.821,18.821,0,0,0,49.3,56.834c.489.038.973.056,1.457.056a18.553,18.553,0,0,0,12.721-5.007A18.726,18.726,0,0,0,68.5,32.138a1.7,1.7,0,0,0-1.613-1.147,1,1,0,0,0-.937,1.359,16.709,16.709,0,0,1,.358,10.688A15.545,15.545,0,0,1,56.581,53.4,16.513,16.513,0,0,1,41.36,51.435,16.265,16.265,0,0,1,59.889,24.7a2.029,2.029,0,0,0,1.989.161.961.961,0,0,0,.182-1.638Z" transform="translate(-27.227 -14.63)" fill="#ffffff"/>
    </g>
  </g>
</svg>
