<svg id="logo" xmlns="http://www.w3.org/2000/svg" width="195.288" height="62.569" viewBox="0 0 195.288 62.569">
  <g id="logo_logotype" data-name="logo/logotype" transform="translate(0 0)">
    <g id="logo_logotype_name" data-name="logo/logotype/name" transform="translate(59.801 5.626)">
      <path id="Trazado_101" data-name="Trazado 101" d="M87.4,19.736H81.6l-10.686,14.1L60.28,19.736h-5.8l13.668,17.78L53.493,56.5h5.8L70.912,41.083,82.584,56.5h5.8L73.728,37.515Z" transform="translate(-53.493 -19.736)" fill="#e3c69e"/>
      <rect id="Rectángulo_48" data-name="Rectángulo 48" width="4.579" height="36.766" transform="translate(43.943)" fill="#e3c69e"/>
      <path id="Trazado_102" data-name="Trazado 102" d="M103.115,40.272a9.269,9.269,0,0,0,3.459-3.233,10.481,10.481,0,0,0,1.38-5.719,11.014,11.014,0,0,0-3.392-8.453,12.891,12.891,0,0,0-9.068-3.131H77.876V56.5h4.58V42.574h12.25l8.7,13.819.069.11h5.44l-9.6-14.73A18.114,18.114,0,0,0,103.115,40.272ZM82.456,24.1H95a9.146,9.146,0,0,1,6.1,1.946,6.6,6.6,0,0,1,2.273,5.279,6.118,6.118,0,0,1-1.336,4.2,7.107,7.107,0,0,1-3.32,2.1,13.8,13.8,0,0,1-3.937.594H82.456Z" transform="translate(-15.456 -19.735)" fill="#e3c69e"/>
      <path id="Trazado_103" data-name="Trazado 103" d="M120.934,19.736V40.751a12.61,12.61,0,0,1-1.61,6.73A9.885,9.885,0,0,1,115.2,51.26a12.511,12.511,0,0,1-10.739,0,9.678,9.678,0,0,1-4.124-3.779,12.775,12.775,0,0,1-1.582-6.73V19.736H94.177v20.9a17.667,17.667,0,0,0,2,8.556,14.459,14.459,0,0,0,5.542,5.711,17.142,17.142,0,0,0,16.246-.028,14.627,14.627,0,0,0,5.542-5.737,17.531,17.531,0,0,0,2-8.5v-20.9Z" transform="translate(9.974 -19.735)" fill="#e3c69e"/>
    </g>
    <g id="logo_logotype_circle" data-name="logo/logotype/circle">
      <path id="Trazado_104" data-name="Trazado 104" d="M77.141,40.061a1.023,1.023,0,0,0-1.021-.983h-.591a1.029,1.029,0,0,0-.737.315,1.042,1.042,0,0,0-.284.753c.013.3.023.6.023.909A20.906,20.906,0,0,1,52.65,61.91a21.024,21.024,0,0,1-19.86-19.86A20.875,20.875,0,0,1,70.826,29.2a1.024,1.024,0,0,0,1.728-.074,2.013,2.013,0,0,0-.138-2.222,23.662,23.662,0,0,0-18.767-9.362A23.536,23.536,0,0,0,30.16,42.175,23.674,23.674,0,0,0,52.524,64.542c.381.018.758.026,1.137.026a23.544,23.544,0,0,0,23.5-23.514C77.164,40.721,77.154,40.391,77.141,40.061Z" transform="translate(-30.134 -17.538)" fill="#e3c69e"/>
      <path id="Trazado_105" data-name="Trazado 105" d="M57.961,27.66a.946.946,0,0,0,.461-1.528A14,14,0,1,0,61.2,31.19a.945.945,0,0,0-1.124-.645l-.333.079a.939.939,0,0,0-.686,1.2,11.763,11.763,0,1,1-2.429-4.342.955.955,0,0,0,.968.284Z" transform="translate(-24.319 -11.724)" fill="#e3c69e"/>
      <path id="Trazado_106" data-name="Trazado 106" d="M45.13,24.975a7.522,7.522,0,0,1,5.179,2.061.876.876,0,0,0,1.2,0l.166-.156a.876.876,0,0,0,0-1.272,9.543,9.543,0,1,0,1.966,2.637.874.874,0,0,0-.512-.438.884.884,0,0,0-.671.054l-.2.1a.878.878,0,0,0-.379,1.172,7.454,7.454,0,0,1,.809,3.4,7.558,7.558,0,1,1-7.557-7.56Z" transform="translate(-21.615 -9.019)" fill="#e3c69e"/>
      <path id="Trazado_107" data-name="Trazado 107" d="M62.06,23.222A18.559,18.559,0,0,0,50.742,19.4,18.8,18.8,0,0,0,37,25.408a18.575,18.575,0,0,0-4.951,14.177A18.821,18.821,0,0,0,49.3,56.834c.489.038.973.056,1.457.056a18.553,18.553,0,0,0,12.721-5.007A18.726,18.726,0,0,0,68.5,32.138a1.7,1.7,0,0,0-1.613-1.147,1,1,0,0,0-.937,1.359,16.709,16.709,0,0,1,.358,10.688A15.545,15.545,0,0,1,56.581,53.4,16.513,16.513,0,0,1,41.36,51.435,16.265,16.265,0,0,1,59.889,24.7a2.029,2.029,0,0,0,1.989.161.961.961,0,0,0,.182-1.638Z" transform="translate(-27.227 -14.63)" fill="#e3c69e"/>
    </g>
  </g>
  <g id="logo_slogan" data-name="logo/slogan" transform="translate(4.817 56.174)">
    <g id="Grupo_128" data-name="Grupo 128">
      <path id="Trazado_108" data-name="Trazado 108" d="M34.488,39.532h.653l2.406,6.134H36.92l-.748-1.907H33.379l-.737,1.907h-.627Zm-.927,3.727h2.414L34.79,40.116Z" transform="translate(-32.015 -39.401)" fill="#e3c69e"/>
      <path id="Trazado_109" data-name="Trazado 109" d="M36,39.532h.653l3.574,5.189h.018V39.532h.584v6.134h-.653L36.6,40.477H36.58v5.189H36Z" transform="translate(-25.805 -39.401)" fill="#e3c69e"/>
      <path id="Trazado_110" data-name="Trazado 110" d="M39.708,39.532h4.864v.5h-2.14v5.637h-.584V40.029h-2.14Z" transform="translate(-20.014 -39.401)" fill="#e3c69e"/>
      <path id="Trazado_111" data-name="Trazado 111" d="M43.454,39.532h.584v6.134h-.584Z" transform="translate(-14.17 -39.401)" fill="#e3c69e"/>
      <path id="Trazado_112" data-name="Trazado 112" d="M50.45,41.468a1.86,1.86,0,0,0-1.882-1.487c-1.623,0-2.312,1.357-2.312,2.7s.689,2.7,2.312,2.7a2.01,2.01,0,0,0,1.969-1.969h.584a2.5,2.5,0,0,1-2.552,2.468,2.9,2.9,0,0,1-2.9-3.2,2.9,2.9,0,0,1,2.9-3.2,2.36,2.36,0,0,1,2.468,1.987Z" transform="translate(-10.709 -39.481)" fill="#e3c69e"/>
      <path id="Trazado_113" data-name="Trazado 113" d="M49.772,39.532h.584v6.134h-.584Z" transform="translate(-4.314 -39.401)" fill="#e3c69e"/>
      <path id="Trazado_114" data-name="Trazado 114" d="M52.105,39.532h2.724a1.754,1.754,0,1,1,0,3.5h-2.14v2.629h-.584Zm.584,3.005H54.7c.817,0,1.367-.4,1.367-1.254A1.2,1.2,0,0,0,54.7,40.029h-2.01Z" transform="translate(-0.675 -39.401)" fill="#e3c69e"/>
      <path id="Trazado_115" data-name="Trazado 115" d="M57.786,39.532h.653l2.406,6.134h-.627l-.748-1.907H56.677l-.74,1.907H55.31Zm-.929,3.727h2.417l-1.188-3.144Z" transform="translate(4.325 -39.401)" fill="#e3c69e"/>
      <path id="Trazado_116" data-name="Trazado 116" d="M58.808,39.532h4.864v.5h-2.14v5.637h-.584V40.029h-2.14Z" transform="translate(9.782 -39.401)" fill="#e3c69e"/>
      <path id="Trazado_117" data-name="Trazado 117" d="M62.554,39.532h.584v6.134h-.584Z" transform="translate(15.626 -39.401)" fill="#e3c69e"/>
      <path id="Trazado_118" data-name="Trazado 118" d="M67.657,39.481a2.9,2.9,0,0,1,2.885,3.2,2.906,2.906,0,1,1-5.783,0A2.9,2.9,0,0,1,67.657,39.481Zm0,5.9c1.615,0,2.3-1.359,2.3-2.7s-.686-2.7-2.3-2.7-2.312,1.357-2.312,2.7S66.031,45.377,67.657,45.377Z" transform="translate(19.066 -39.481)" fill="#e3c69e"/>
      <path id="Trazado_119" data-name="Trazado 119" d="M68.975,39.532h.655L73.2,44.721h.015V39.532h.586v6.134h-.653l-3.576-5.189h-.015v5.189h-.586Z" transform="translate(25.643 -39.401)" fill="#e3c69e"/>
      <path id="Trazado_120" data-name="Trazado 120" d="M75.5,39.532h.584v6.134H75.5Z" transform="translate(35.823 -39.401)" fill="#e3c69e"/>
      <path id="Trazado_121" data-name="Trazado 121" d="M78.3,43.725c-.026,1.265.878,1.651,2,1.651.645,0,1.626-.353,1.626-1.247,0-.7-.689-.97-1.265-1.108L79.3,42.686c-.722-.179-1.385-.515-1.385-1.477,0-.6.387-1.728,2.115-1.728,1.221,0,2.268.645,2.268,1.907h-.584a1.516,1.516,0,0,0-1.677-1.408c-.8,0-1.539.31-1.539,1.221,0,.576.422.824.929.934l1.5.371c.868.23,1.59.617,1.59,1.615,0,.42-.172,1.754-2.345,1.754-1.454,0-2.519-.653-2.45-2.15Z" transform="translate(39.272 -39.481)" fill="#e3c69e"/>
      <path id="Trazado_122" data-name="Trazado 122" d="M83.849,39.532h.627L85.869,44.9h.018l1.5-5.371h.73l1.5,5.371h.018l1.4-5.371h.584l-1.692,6.134H89.3L87.75,40.175h-.018l-1.546,5.491h-.635Z" transform="translate(48.846 -39.401)" fill="#e3c69e"/>
      <path id="Trazado_123" data-name="Trazado 123" d="M88.74,39.532h4.237v.5H89.324v2.217h3.42v.5h-3.42v2.422h3.694v.5H88.74Z" transform="translate(56.476 -39.401)" fill="#e3c69e"/>
      <path id="Trazado_124" data-name="Trazado 124" d="M94.543,39.532H95.2L97.6,45.666h-.627l-.748-1.907H93.434L92.7,45.666H92.07Zm-.927,3.727H96.03l-1.185-3.144Z" transform="translate(61.671 -39.401)" fill="#e3c69e"/>
      <path id="Trazado_125" data-name="Trazado 125" d="M96.054,39.532h.584v5.635h3.438v.5H96.054Z" transform="translate(67.886 -39.401)" fill="#e3c69e"/>
      <path id="Trazado_126" data-name="Trazado 126" d="M98.894,39.532h4.864v.5h-2.14v5.637h-.584V40.029h-2.14Z" transform="translate(72.316 -39.401)" fill="#e3c69e"/>
      <path id="Trazado_127" data-name="Trazado 127" d="M102.623,39.532h.586v2.662h3.643V39.532h.584v6.134h-.584V42.694h-3.643v2.972h-.586Z" transform="translate(78.133 -39.401)" fill="#e3c69e"/>
    </g>
  </g>
</svg>
